<svg width="75" height="99" viewBox="0 0 75 99" fill="none" xmlns="http://www.w3.org/2000/svg">
<path d="M62.7572 21.2512C67.7491 26.1001 71.1268 31.7571 72.9501 38.342C73.8767 41.6643 74.2653 45.0765 74.2653 48.5186C74.2653 59.9224 74.2653 71.2962 74.2952 82.7C74.2952 91.3202 69.3931 97.2466 60.8442 98.5935C55.5236 99.4316 48.5291 97.0072 45.5699 91.1706C45.8688 91.0209 46.1378 90.9012 46.4367 90.7815C56.0317 86.8904 62.0698 77.941 62.0996 67.5548C62.0996 64.6515 62.0399 61.7182 62.0399 58.8149C62.0399 58.3959 62.0399 58.0068 62.0399 57.5578C62.4882 57.4979 62.8469 57.4381 63.2056 57.3782C65.2382 56.9891 66.3741 55.4925 66.1947 53.4572C66.0453 51.6314 64.461 50.3144 62.4882 50.2845C60.8442 50.2845 59.2002 50.3444 57.5861 50.1349C53.9394 49.656 51.3986 47.5608 49.6649 44.3881C48.4992 42.233 47.8715 39.8984 47.6025 37.4739C47.3334 35.1094 45.8389 33.7026 43.7465 33.8523C41.953 33.972 40.5482 35.289 40.4884 37.2345C40.2791 43.2207 36.8417 46.603 31.5808 48.5485C27.3961 50.1049 23.0021 50.3743 18.5782 50.2246C16.7548 50.1648 14.9315 49.9553 13.1081 49.8655C11.0755 49.7757 9.58098 50.9131 9.22229 52.7987C8.89348 54.5048 9.85 56.181 11.6734 56.8095C12.3609 57.049 12.3609 57.468 12.3609 58.0068C12.3907 61.1495 12.4505 64.2923 12.4804 67.4052C12.6 78.36 18.6978 87.1598 28.9205 91.1107C29.07 91.1706 29.1895 91.2005 29.4586 91.3202C29.2792 91.6495 29.1597 91.9188 28.9803 92.1882C25.6026 97.2765 18.8173 99.8506 12.5402 98.4439C6.02394 96.9772 2.04842 92.8467 1.06202 86.202C0.792996 84.5258 0.822887 82.7898 0.822887 81.0837C0.792996 69.9194 0.733214 58.755 0.852778 47.5907C0.942451 38.1923 4.35004 30.051 10.6869 23.1369C11.3446 22.4185 11.4641 21.8498 11.1353 20.9818C10.2685 18.6771 9.43152 16.3724 8.65436 14.0378C8.08642 12.3916 8.47501 10.9848 9.85 9.93721C15.9777 5.14822 22.763 1.82585 30.5047 0.6286C38.396 -0.59858 46.0182 0.508875 53.4013 3.47207C57.2872 5.02849 60.9638 7.03388 64.3116 9.54811C66.3143 11.0447 66.7029 12.5412 65.7165 14.816C64.6703 16.8214 63.7138 19.0064 62.7572 21.2512ZM33.464 19.9043C33.464 21.6703 33.4341 23.2865 33.464 24.9328C33.4939 26.1899 34.0618 26.7885 35.2873 26.8184C36.6623 26.8484 38.0373 26.8484 39.4123 26.8184C40.9367 26.8184 41.4748 26.2497 41.4748 24.6933C41.4748 23.1369 41.4748 21.5805 41.4748 19.9043C43.2682 19.9043 44.9422 19.9342 46.5862 19.9043C47.8715 19.8744 48.4095 19.3057 48.4095 18.0186C48.4394 16.7615 48.4095 15.4745 48.4095 14.2174C48.4095 12.4514 47.9313 11.9725 46.1677 11.9725C44.6133 11.9725 43.059 11.9725 41.4748 11.9725C41.4748 10.3263 41.4748 8.82976 41.4748 7.3332C41.4748 5.56725 40.9666 5.05842 39.233 5.02849C38.0672 5.02849 36.9313 5.02849 35.7656 5.02849C33.9422 5.02849 33.4341 5.50739 33.4341 7.3332C33.4341 8.85969 33.4341 10.3562 33.4341 11.9725C31.6107 11.9725 29.9368 11.9426 28.2928 11.9725C27.0972 12.0025 26.5292 12.5712 26.4993 13.7684C26.4694 15.0854 26.4993 16.3724 26.4993 17.6894C26.4993 19.3955 26.9776 19.9043 28.6814 19.9043C30.2357 19.9043 31.82 19.9043 33.464 19.9043Z" fill="#F8FBFF"/>
</svg>
