<svg width="47" height="46" viewBox="0 0 47 46" fill="none" xmlns="http://www.w3.org/2000/svg">
<rect x="0.5" width="46" height="46" rx="15" fill="url(#paint0_linear_113_3570)"/>
<g clip-path="url(#clip0_113_3570)">
<path d="M30.3245 9.53333C29.379 9.8 28.7002 10.5273 28.5548 11.497C28.4336 12.1758 28.676 12.9273 29.1609 13.4848L29.4033 13.7515L28.4821 14.6727C27.973 15.1818 27.5366 15.5939 27.5124 15.5939C27.4881 15.5939 27.1972 15.3273 26.8578 14.9879C26.2275 14.3576 26.0336 14.2364 25.5245 14.0909C23.7306 13.5576 22.0336 15.3515 22.6154 17.1697L22.7124 17.4364L18.4942 21.6303C15.9002 24.2242 14.2518 25.9212 14.1548 26.0667C13.8396 26.6242 13.7427 27.4727 13.9609 28.0303L14.0578 28.3212L13.4275 28.9758C12.6518 29.7758 12.5063 30.0182 12.5063 30.6727C12.5063 31.0121 12.5306 31.1576 12.6518 31.4242C12.7487 31.5939 12.8942 31.8364 13.0154 31.9576L13.2336 32.1758L11.6336 33.7758C10.7609 34.6485 9.9851 35.4727 9.93661 35.5697C9.8154 35.8364 9.8154 36.0545 9.93661 36.297C10.0578 36.5394 10.373 36.7333 10.6396 36.7333C10.7366 36.7333 10.8821 36.6848 11.0033 36.6364C11.1002 36.5879 11.9245 35.8121 12.7972 34.9394L14.3972 33.3394L14.6154 33.5576C15.1487 34.0667 15.973 34.2121 16.6275 33.9212C16.8699 33.8 17.0881 33.6303 17.5972 33.1455L18.2275 32.5152L18.5184 32.6121C19.1245 32.8303 19.973 32.7091 20.5548 32.3697C20.676 32.297 22.6639 30.3576 24.9669 28.0545L29.1366 23.8848L29.5972 24.0061C30.0093 24.103 30.1306 24.103 30.4699 24.0545C31.9245 23.8364 32.8457 22.4788 32.4821 21.097C32.3609 20.5879 32.2154 20.3697 31.5609 19.7152C31.2215 19.3758 30.9548 19.0848 30.9548 19.0606C30.9548 19.0364 31.3669 18.6 31.876 18.0909L32.7972 17.1697L33.0639 17.4121C34.4457 18.6485 36.5548 18.0182 37.0154 16.2242C37.1609 15.6909 37.0881 15.0848 36.8215 14.5515C36.6518 14.1879 32.4093 9.94545 32.0699 9.75152C31.5366 9.48485 30.8821 9.38788 30.3245 9.53333ZM31.2215 11.1333C31.3184 11.1818 32.2639 12.103 33.4033 13.2182C35.5366 15.3515 35.5124 15.3515 35.4396 15.7636C35.3912 16.0303 35.1245 16.297 34.8821 16.3697C34.4457 16.4909 34.4457 16.4909 32.2396 14.2848C30.5912 12.6364 30.2033 12.2 30.1548 12.0545C29.9609 11.4242 30.6154 10.8667 31.2215 11.1333ZM31.1002 15.4485L31.6578 16.0061L30.7124 16.9515L29.7669 17.897L29.2093 17.3152L28.6275 16.7576L29.5487 15.8364C30.0578 15.3273 30.4942 14.9152 30.5184 14.9152C30.5427 14.8909 30.7851 15.1333 31.1002 15.4485ZM25.2093 15.6667C25.3063 15.7152 26.5669 16.9273 28.1427 18.503C30.5669 20.9273 30.9063 21.2909 30.9306 21.4606C31.0275 21.9212 30.8093 22.2848 30.373 22.4061C29.9366 22.5273 29.9851 22.6 26.9548 19.5455C23.8275 16.4182 23.9487 16.5879 24.1669 16.0788C24.3366 15.6667 24.7972 15.4727 25.2093 15.6667ZM25.8396 20.7333L27.9002 22.7939L27.0275 23.6667L26.1548 24.5152L24.0942 22.4545L22.0336 20.3939L22.8821 19.5455C23.3427 19.0848 23.7548 18.697 23.7548 18.697C23.779 18.6727 24.7002 19.5939 25.8396 20.7333ZM22.9548 23.5939L25.0154 25.6545L22.373 28.297C20.9184 29.7515 19.6821 30.9636 19.5851 31.0121C19.4154 31.1091 19.0518 31.1091 18.8821 31.0364C18.7366 30.9394 15.6336 27.8364 15.5366 27.6667C15.4396 27.4727 15.4396 27.1333 15.5366 26.9394C15.5851 26.8667 15.779 26.6242 15.9972 26.4303L16.3851 26.0667L16.8699 26.5515C17.1366 26.8182 17.4275 27.0848 17.5245 27.1091C18.0336 27.3758 18.6639 26.9879 18.6639 26.4061C18.6639 26.0909 18.6154 26.0182 18.0336 25.4121L17.5002 24.903L18.0578 24.3455L18.6154 23.7879L19.1487 24.3212C19.7548 24.9273 19.973 25.0242 20.3366 24.9273C20.6033 24.8545 20.8699 24.5636 20.8942 24.3212C20.9427 23.9818 20.7972 23.7394 20.2396 23.1818L19.7306 22.6727L20.2639 22.1394C20.579 21.8242 20.8215 21.5818 20.8457 21.5818C20.8942 21.5576 21.8396 22.4788 22.9548 23.5939ZM16.0457 30.4788C16.5306 30.9636 16.9427 31.4 16.9427 31.4242C16.9427 31.5212 15.9487 32.4667 15.8518 32.4667C15.7306 32.4667 14.0821 30.8182 14.0821 30.697C14.0821 30.6 15.0275 29.6061 15.1245 29.6061C15.1245 29.5818 15.5609 29.9939 16.0457 30.4788Z" fill="white"/>
</g>
<defs>
<linearGradient id="paint0_linear_113_3570" x1="23.5" y1="0" x2="23.5" y2="46" gradientUnits="userSpaceOnUse">
<stop stop-color="#2F52A7"/>
<stop offset="1" stop-color="#3F6BDB"/>
</linearGradient>
<clipPath id="clip0_113_3570">
<rect width="28" height="28" fill="white" transform="translate(9.5 9)"/>
</clipPath>
</defs>
</svg>
