<svg width="47" height="46" viewBox="0 0 47 46" fill="none" xmlns="http://www.w3.org/2000/svg">
<rect x="0.5" width="46" height="46" rx="15" fill="url(#paint0_linear_113_3723)"/>
<path d="M30.6397 9.41212C30.3488 9.46061 29.7912 9.65455 29.5245 9.82424C29.0639 10.0667 28.4821 10.697 28.2397 11.1818C27.7791 12.103 27.7791 12.7091 28.2154 14.4545C28.3851 15.1091 28.5064 15.6667 28.5064 15.6909C28.5064 15.7152 28.2639 15.7394 27.8518 15.7394H27.1973V16.5636V17.3879H27.9973H28.7973V20.297V23.2061L29.5973 25.5333L30.3973 27.8606H31.173H31.973L32.07 27.5455C32.1185 27.3758 32.4821 26.3333 32.87 25.2182L33.573 23.2061V20.3212V17.4121H34.373H35.173V16.5879V15.7636H34.5185C34.1306 15.7636 33.8639 15.7394 33.8639 15.7152C33.8639 15.6909 34.0094 15.0848 34.1791 14.3818C34.5185 12.9758 34.567 12.5879 34.4215 11.9333C34.1306 10.7212 33.1124 9.70303 31.9245 9.46061C31.5609 9.36364 30.9548 9.33939 30.6397 9.41212ZM31.8761 11.1333C32.4336 11.3758 32.7973 11.9333 32.87 12.5152C32.8942 12.7818 32.8458 13.0485 32.5306 14.2848L32.167 15.7636H31.173H30.1791L29.8154 14.2848C29.4033 12.6606 29.4033 12.4909 29.6458 11.9576C30.0579 11.1091 31.0276 10.7455 31.8761 11.1333ZM31.973 20.1758V22.9636L31.5851 24.0545C31.367 24.6606 31.1973 25.1697 31.173 25.1697C31.1488 25.1697 30.9548 24.6606 30.7609 24.0545L30.373 22.9394V20.1758V17.4121H31.173H31.973V20.1758Z" fill="white"/>
<path d="M13.5719 14.5758V17.3879H14.3719H15.1719L15.1476 17.9212C15.1476 18.3576 15.0991 18.4788 15.0264 18.6C14.8325 18.8667 14.687 18.9394 14.1779 18.9879C13.2567 19.0849 12.5537 19.5697 12.19 20.3697L11.9961 20.7818V27.8121V34.8424L12.1658 35.1818C12.4809 35.8364 13.0385 36.3212 13.7173 36.5152C14.0567 36.6121 14.3719 36.6121 18.7597 36.6121C22.8082 36.6121 23.487 36.6121 23.7537 36.5394C24.6991 36.297 25.3779 35.5212 25.5476 34.5758C25.5961 34.3091 25.5961 32.103 25.5961 27.5697C25.5719 21.4606 25.5719 20.9273 25.4991 20.6606C25.2809 20.0061 24.6749 19.3758 24.0688 19.1333C23.8991 19.0848 23.584 19.0121 23.3658 18.9879C22.6143 18.9152 22.3961 18.6727 22.3719 17.897L22.3476 17.4121L23.1719 17.3879L23.9961 17.3636V14.5758V11.7879L18.784 11.7636H13.5719V14.5758ZM22.3476 14.5515V15.7394H18.7597H15.1476V14.5515V13.3636H18.7355H22.3476V14.5515ZM20.7476 17.8485C20.7476 18.7697 20.9658 19.3515 21.4749 19.8606C21.9112 20.297 22.59 20.5879 23.1961 20.5879C23.4143 20.5879 23.6809 20.7333 23.8506 20.9758C23.9476 21.097 23.9719 21.2182 23.9719 21.6303V22.1636L19.5597 22.1879H15.1476V27.8121V33.4364H19.5597H23.9961L23.9719 33.9455C23.9476 34.503 23.8506 34.697 23.584 34.9152C23.4385 35.0364 23.4143 35.0364 18.8082 35.0364H14.2022L13.9597 34.9152C13.4991 34.6727 13.5234 35.303 13.5234 27.7879C13.5234 21.2667 13.5234 21.1455 13.6203 20.9758C13.7658 20.7576 14.0325 20.5879 14.2749 20.5879C14.59 20.5879 15.1476 20.4424 15.4385 20.2727C15.584 20.2 15.8264 20.0061 15.9719 19.8606C16.4809 19.3515 16.6991 18.7697 16.6991 17.897V17.3636H18.687H20.6749V17.8485H20.7476ZM23.9719 27.8121V31.8121L20.3597 31.8364H16.7476V27.8121V23.7879H20.3597L23.9719 23.8121V27.8121Z" fill="white"/>
<path d="M30.5423 30.5515C29.7666 31.7151 29.6211 31.9818 29.2575 32.7333C28.9423 33.4121 28.7969 33.8727 28.7969 34.2606C28.7969 35.4 29.6696 36.3939 30.809 36.5879C31.9726 36.7818 33.1363 36.0788 33.4757 34.9151C33.7423 34.0909 33.4999 33.2909 32.5787 31.7151C32.1423 30.9879 31.2454 29.6545 31.1726 29.6545C31.1726 29.6545 30.8575 30.0667 30.5423 30.5515ZM31.5848 33.2182C31.9969 34.0424 32.0454 34.2606 31.8757 34.5758C31.7545 34.7939 31.4393 35.0121 31.1969 35.0121C30.7605 35.0121 30.3726 34.5515 30.4211 34.1394C30.4454 33.9212 31.1241 32.5151 31.1969 32.5151C31.1969 32.5151 31.3908 32.8303 31.5848 33.2182Z" fill="white"/>
<defs>
<linearGradient id="paint0_linear_113_3723" x1="23.5" y1="0" x2="23.5" y2="46" gradientUnits="userSpaceOnUse">
<stop stop-color="#2F52A7"/>
<stop offset="1" stop-color="#3F6BDB"/>
</linearGradient>
</defs>
</svg>
